<?xml version="1.0" encoding="UTF-8"?> <svg xmlns="http://www.w3.org/2000/svg" width="270" height="270" viewBox="0 0 270 270" fill="none"> <circle cx="135" cy="135" r="135" fill="#0C3D2B"></circle> <path d="M141.511 214.139C165.388 204.723 190.36 185.405 192.552 157.892C195.109 125.366 162.584 101.522 168.19 68.7544C168.555 66.7972 166.24 64.7198 164.414 65.6973C145.411 76.0908 132.133 94.5531 128.721 116.198C126.163 132.95 132.011 149.09 136.396 165.231C134.446 161.196 132.011 157.282 129.331 153.737C116.175 136.497 95.5878 127.816 76.3408 119.377C75.123 118.765 73.539 119.867 73.7829 121.334C76.9505 140.777 76.9505 158.507 88.5232 175.38C99.2436 190.787 115.687 204.235 132.621 212.184C132.987 212.307 133.231 211.817 132.987 211.572C119.586 198.978 103.507 190.052 92.5448 174.767C81.2164 158.872 80.7282 142.364 77.9269 124.144C94.8583 131.113 112.158 139.062 124.094 153.368C136.398 168.04 139.93 186.138 138.834 204.6C138.834 204.723 138.834 204.846 138.712 204.968C138.712 204.968 138.712 204.968 138.712 205.09C138.59 206.435 138.59 207.78 138.468 209.003C138.468 209.003 138.346 209.003 138.346 209.125C135.422 210.592 138.346 215.362 141.511 214.139V214.139ZM143.461 197.264C154.059 177.454 156.373 160.459 146.872 139.305C146.385 138.082 144.193 138.45 144.559 139.917C146.753 149.088 149.918 158.015 150.162 167.551C150.406 177.577 147.117 186.748 143.463 195.919C143.463 191.762 143.097 187.483 142.367 183.326C141.516 167.431 134.693 152.145 132.623 135.395C129.699 110.941 141.272 86.6068 161.859 73.5234C160.153 97.2451 176.599 116.075 183.786 138.085C194.75 172.077 167.95 191.762 142.367 206.558C143.095 203.5 143.461 200.321 143.461 197.264V197.264Z" fill="white"></path> <path d="M113.623 172.32C107.653 168.286 99.9781 167.796 97.7869 159.604C97.5426 158.869 96.3249 158.992 96.3249 159.726C95.351 171.588 110.943 172.32 116.912 179.656C123.125 187.36 125.195 197.754 134.332 203.133C134.576 203.256 134.819 202.888 134.576 202.766C128.118 196.042 125.683 187.238 120.568 179.656C118.615 176.722 116.546 174.277 113.623 172.32V172.32Z" fill="white"></path> <path d="M191.079 61.0517L199.971 65.3311C229.817 80.8591 243.459 107.76 234.932 145.91C221.166 207.782 164.4 241.774 112.872 229.546C66.2163 218.54 25.2862 173.176 47.2131 114.607C68.0441 58.9721 125.906 45.8892 172.075 47.6011C176.583 47.8463 180.116 43.5665 180.236 38.1851C180.236 32.8058 176.581 28.2816 172.195 28.0363C119.936 27.0593 57.3238 44.1768 34.6648 107.516C14.5654 163.885 43.0696 216.218 89.4828 235.905L99.7155 239.695C139.306 250.088 174.023 245.319 205.575 214.506C237.49 183.325 263.316 114.485 223.116 76.4573C212.273 66.3086 203.991 63.6192 191.079 61.0517V61.0517Z" fill="white"></path> </svg> 